<svg width="375" height="812" viewBox="0 0 375 812" fill="none" xmlns="http://www.w3.org/2000/svg">
<rect width="375" height="812" fill="#FFF8F6"/>
<rect width="375" height="812" fill="url(#paint0_linear_30_53)"/>
<circle cx="188.003" cy="196.992" r="90.9923" fill="#FFF8F6" stroke="url(#paint1_linear_30_53)" stroke-width="10"/>
<path d="M195.385 195.073C159.548 175.106 116.491 189.678 101.559 197.997C101.559 229.355 124.282 283.938 186.997 283.938C251.721 283.938 277.143 222.955 273.943 197.997C263.917 206.317 231.222 215.039 195.385 195.073Z" fill="url(#paint2_linear_30_53)"/>
<path fill-rule="evenodd" clip-rule="evenodd" d="M186.033 193.153C185.501 193.142 185.071 193.284 184.753 193.596C184.277 194.062 184.098 194.709 184.182 195.516C185.493 208.168 251.466 259.86 251.466 259.86C251.466 259.86 197.046 193.391 186.033 193.153ZM187.715 199.451C189.129 199.451 190.275 198.305 190.275 196.891C190.275 195.477 189.129 194.331 187.715 194.331C186.301 194.331 185.155 195.477 185.155 196.891C185.155 198.305 186.301 199.451 187.715 199.451Z" fill="white"/>
<path d="M100.336 340.031H98.5078V315.967H90.1758V314.332H108.668V315.967H100.336V340.031ZM113.818 320.924V340.031H112.043V320.924H113.818ZM112.957 313.857C113.402 313.857 113.73 313.992 113.941 314.261C114.152 314.519 114.258 314.871 114.258 315.316C114.258 315.761 114.152 316.113 113.941 316.371C113.73 316.629 113.402 316.758 112.957 316.758C112.535 316.758 112.219 316.629 112.008 316.371C111.797 316.113 111.691 315.761 111.691 315.316C111.691 314.871 111.797 314.519 112.008 314.261C112.219 313.992 112.535 313.857 112.957 313.857ZM139.922 320.554C141.762 320.554 143.215 321.088 144.281 322.154C145.348 323.22 145.881 324.902 145.881 327.199V340.031H144.141V327.269C144.141 325.5 143.736 324.199 142.928 323.367C142.119 322.535 141.053 322.119 139.729 322.119C137.912 322.119 136.488 322.652 135.457 323.719C134.438 324.773 133.928 326.437 133.928 328.711V340.031H132.17V327.269C132.17 326.086 131.982 325.119 131.607 324.369C131.244 323.607 130.734 323.045 130.078 322.681C129.422 322.306 128.648 322.119 127.758 322.119C126.574 322.119 125.549 322.365 124.682 322.857C123.814 323.338 123.146 324.088 122.678 325.107C122.209 326.115 121.975 327.398 121.975 328.957V340.031H120.199V320.924H121.641L121.904 324.052H122.01C122.326 323.431 122.748 322.857 123.275 322.33C123.803 321.802 124.453 321.375 125.227 321.047C126.012 320.719 126.932 320.554 127.986 320.554C129.357 320.554 130.518 320.865 131.467 321.486C132.428 322.095 133.096 323.004 133.471 324.211H133.594C134.109 323.062 134.906 322.166 135.984 321.521C137.074 320.877 138.387 320.554 139.922 320.554ZM159.258 320.554C160.887 320.554 162.24 320.935 163.318 321.697C164.408 322.459 165.217 323.502 165.744 324.826C166.283 326.15 166.553 327.668 166.553 329.379V330.662H152.754C152.754 333.287 153.357 335.302 154.564 336.709C155.783 338.115 157.523 338.818 159.785 338.818C160.969 338.818 161.994 338.724 162.861 338.537C163.74 338.338 164.713 338.004 165.779 337.535V339.17C164.842 339.592 163.904 339.896 162.967 340.084C162.029 340.283 160.951 340.383 159.732 340.383C157.799 340.383 156.176 339.984 154.863 339.187C153.562 338.379 152.578 337.242 151.91 335.777C151.254 334.312 150.926 332.601 150.926 330.644C150.926 328.734 151.242 327.017 151.875 325.494C152.52 323.97 153.457 322.769 154.688 321.89C155.93 321 157.453 320.554 159.258 320.554ZM159.24 322.084C157.412 322.084 155.93 322.693 154.793 323.912C153.668 325.119 153.006 326.865 152.807 329.15H164.707C164.707 327.756 164.508 326.525 164.109 325.459C163.711 324.392 163.107 323.566 162.299 322.98C161.502 322.383 160.482 322.084 159.24 322.084Z" fill="#FFB5A7"/>
<path d="M136.575 400.438L131.855 388.573H131.812C131.823 388.79 131.832 389.018 131.838 389.259C131.85 389.493 131.858 389.739 131.864 389.997C131.87 390.255 131.873 390.524 131.873 390.805V400.438H131.012V387.589H132.383L136.936 399.032H136.988L141.576 387.589H142.912V400.438H142.024V390.7C142.024 390.471 142.027 390.237 142.033 389.997C142.039 389.757 142.045 389.519 142.051 389.285C142.062 389.045 142.074 388.813 142.086 388.591H142.033L137.296 400.438H136.575ZM149.943 390.7C150.758 390.7 151.435 390.89 151.974 391.271C152.519 391.652 152.923 392.174 153.187 392.836C153.456 393.498 153.591 394.257 153.591 395.112V395.754H146.691C146.691 397.066 146.993 398.074 147.597 398.777C148.206 399.48 149.076 399.832 150.207 399.832C150.799 399.832 151.312 399.785 151.745 399.691C152.185 399.592 152.671 399.425 153.204 399.19V400.008C152.735 400.219 152.267 400.371 151.798 400.465C151.329 400.564 150.79 400.614 150.181 400.614C149.214 400.614 148.402 400.415 147.746 400.016C147.096 399.612 146.604 399.044 146.27 398.311C145.941 397.579 145.777 396.723 145.777 395.745C145.777 394.79 145.936 393.931 146.252 393.17C146.574 392.408 147.043 391.807 147.658 391.368C148.279 390.923 149.041 390.7 149.943 390.7ZM149.935 391.465C149.021 391.465 148.279 391.769 147.711 392.379C147.148 392.982 146.817 393.855 146.718 394.998H152.668C152.668 394.301 152.568 393.685 152.369 393.152C152.17 392.619 151.868 392.206 151.464 391.913C151.065 391.614 150.556 391.465 149.935 391.465ZM152.378 386.648V386.798C152.237 386.985 152.064 387.199 151.859 387.439C151.654 387.674 151.432 387.917 151.191 388.169C150.951 388.421 150.708 388.664 150.462 388.898C150.216 389.133 149.979 389.344 149.75 389.531H149.117V389.382C149.352 389.147 149.609 388.869 149.891 388.547C150.172 388.219 150.438 387.887 150.69 387.553C150.948 387.214 151.159 386.912 151.323 386.648H152.378ZM158.803 399.849C159.078 399.849 159.333 399.829 159.567 399.788C159.808 399.747 160.019 399.694 160.2 399.63V400.368C160.013 400.432 159.793 400.488 159.541 400.535C159.289 400.588 159.011 400.614 158.706 400.614C158.167 400.614 157.719 400.514 157.361 400.315C157.004 400.11 156.734 399.802 156.553 399.392C156.371 398.976 156.28 398.449 156.28 397.81V391.623H154.856V391.095L156.271 390.823L156.579 388.573H157.168V390.885H160.147V391.623H157.168V397.758C157.168 398.443 157.294 398.965 157.546 399.322C157.804 399.674 158.223 399.849 158.803 399.849ZM170.176 395.648C170.176 396.386 170.085 397.06 169.903 397.67C169.722 398.273 169.452 398.795 169.095 399.234C168.737 399.674 168.292 400.013 167.759 400.254C167.231 400.494 166.616 400.614 165.913 400.614C165.245 400.614 164.65 400.497 164.129 400.262C163.607 400.022 163.165 399.682 162.802 399.243C162.444 398.803 162.172 398.282 161.984 397.678C161.797 397.069 161.703 396.392 161.703 395.648C161.703 394.623 161.873 393.741 162.213 393.003C162.559 392.259 163.051 391.69 163.689 391.298C164.334 390.899 165.104 390.7 166.001 390.7C166.927 390.7 167.697 390.911 168.312 391.333C168.934 391.749 169.399 392.329 169.71 393.073C170.021 393.817 170.176 394.676 170.176 395.648ZM162.617 395.648C162.617 396.486 162.737 397.219 162.978 397.845C163.218 398.472 163.581 398.962 164.067 399.313C164.56 399.665 165.181 399.841 165.931 399.841C166.698 399.841 167.328 399.665 167.82 399.313C168.312 398.962 168.676 398.469 168.91 397.837C169.145 397.204 169.262 396.474 169.262 395.648C169.262 394.845 169.15 394.131 168.928 393.504C168.705 392.877 168.354 392.385 167.873 392.027C167.393 391.664 166.766 391.482 165.992 391.482C164.885 391.482 164.044 391.851 163.47 392.59C162.901 393.328 162.617 394.347 162.617 395.648ZM176.275 400.614C174.969 400.614 173.973 400.204 173.287 399.384C172.607 398.557 172.268 397.356 172.268 395.78C172.268 394.128 172.628 392.868 173.349 392.001C174.069 391.134 175.074 390.7 176.363 390.7C176.914 390.7 177.392 390.785 177.796 390.955C178.206 391.125 178.549 391.356 178.824 391.649C179.105 391.936 179.322 392.264 179.475 392.634H179.545C179.521 392.323 179.504 391.989 179.492 391.632C179.48 391.274 179.475 390.946 179.475 390.647V386.762H180.362V400.438H179.642L179.527 398.689H179.475C179.316 399.041 179.097 399.363 178.815 399.656C178.54 399.949 178.194 400.183 177.778 400.359C177.362 400.529 176.861 400.614 176.275 400.614ZM176.372 399.841C177.497 399.841 178.297 399.492 178.771 398.795C179.246 398.092 179.483 397.09 179.483 395.789V395.648C179.483 394.301 179.246 393.269 178.771 392.554C178.297 391.834 177.523 391.473 176.451 391.473C175.391 391.473 174.579 391.843 174.017 392.581C173.46 393.319 173.182 394.391 173.182 395.798C173.182 397.122 173.442 398.127 173.964 398.812C174.491 399.498 175.294 399.841 176.372 399.841ZM191.463 395.648C191.463 396.386 191.372 397.06 191.19 397.67C191.009 398.273 190.739 398.795 190.382 399.234C190.024 399.674 189.579 400.013 189.046 400.254C188.519 400.494 187.903 400.614 187.2 400.614C186.532 400.614 185.938 400.497 185.416 400.262C184.895 400.022 184.452 399.682 184.089 399.243C183.731 398.803 183.459 398.282 183.271 397.678C183.084 397.069 182.99 396.392 182.99 395.648C182.99 394.623 183.16 393.741 183.5 393.003C183.846 392.259 184.338 391.69 184.977 391.298C185.621 390.899 186.392 390.7 187.288 390.7C188.214 390.7 188.984 390.911 189.6 391.333C190.221 391.749 190.687 392.329 190.997 393.073C191.308 393.817 191.463 394.676 191.463 395.648ZM183.904 395.648C183.904 396.486 184.024 397.219 184.265 397.845C184.505 398.472 184.868 398.962 185.354 399.313C185.847 399.665 186.468 399.841 187.218 399.841C187.985 399.841 188.615 399.665 189.107 399.313C189.6 398.962 189.963 398.469 190.197 397.837C190.432 397.204 190.549 396.474 190.549 395.648C190.549 394.845 190.438 394.131 190.215 393.504C189.992 392.877 189.641 392.385 189.16 392.027C188.68 391.664 188.053 391.482 187.279 391.482C186.172 391.482 185.331 391.851 184.757 392.59C184.188 393.328 183.904 394.347 183.904 395.648ZM203.012 390.7C204.242 390.7 205.194 391.113 205.868 391.939C206.548 392.765 206.888 393.984 206.888 395.595C206.888 396.674 206.727 397.588 206.404 398.338C206.082 399.082 205.622 399.647 205.024 400.034C204.433 400.421 203.721 400.614 202.889 400.614C202.314 400.614 201.813 400.529 201.386 400.359C200.964 400.183 200.612 399.949 200.331 399.656C200.05 399.357 199.833 399.029 199.681 398.672H199.619C199.637 399.006 199.651 399.354 199.663 399.718C199.675 400.081 199.681 400.424 199.681 400.746V404.666H198.784V390.885H199.522L199.628 392.792H199.681C199.839 392.428 200.062 392.086 200.349 391.763C200.636 391.441 200.999 391.183 201.438 390.99C201.878 390.797 202.402 390.7 203.012 390.7ZM202.897 391.482C202.177 391.482 201.576 391.64 201.096 391.957C200.621 392.267 200.267 392.724 200.032 393.328C199.804 393.926 199.687 394.658 199.681 395.525V395.675C199.681 396.606 199.795 397.383 200.023 398.004C200.258 398.619 200.606 399.079 201.069 399.384C201.538 399.688 202.118 399.841 202.81 399.841C203.489 399.841 204.063 399.674 204.532 399.34C205.001 399.006 205.358 398.522 205.604 397.889C205.851 397.257 205.974 396.489 205.974 395.587C205.974 394.245 205.716 393.225 205.2 392.528C204.69 391.831 203.923 391.482 202.897 391.482ZM217.426 395.648C217.426 396.386 217.335 397.06 217.153 397.67C216.972 398.273 216.702 398.795 216.345 399.234C215.987 399.674 215.542 400.013 215.009 400.254C214.481 400.494 213.866 400.614 213.163 400.614C212.495 400.614 211.9 400.497 211.379 400.262C210.857 400.022 210.415 399.682 210.052 399.243C209.694 398.803 209.422 398.282 209.234 397.678C209.047 397.069 208.953 396.392 208.953 395.648C208.953 394.623 209.123 393.741 209.463 393.003C209.809 392.259 210.301 391.69 210.939 391.298C211.584 390.899 212.354 390.7 213.251 390.7C214.177 390.7 214.947 390.911 215.562 391.333C216.184 391.749 216.649 392.329 216.96 393.073C217.271 393.817 217.426 394.676 217.426 395.648ZM209.867 395.648C209.867 396.486 209.987 397.219 210.228 397.845C210.468 398.472 210.831 398.962 211.317 399.313C211.81 399.665 212.431 399.841 213.181 399.841C213.948 399.841 214.578 399.665 215.07 399.313C215.562 398.962 215.926 398.469 216.16 397.837C216.395 397.204 216.512 396.474 216.512 395.648C216.512 394.845 216.4 394.131 216.178 393.504C215.955 392.877 215.604 392.385 215.123 392.027C214.643 391.664 214.016 391.482 213.242 391.482C212.135 391.482 211.294 391.851 210.72 392.59C210.151 393.328 209.867 394.347 209.867 395.648ZM229.924 390.7C230.844 390.7 231.57 390.967 232.104 391.5C232.637 392.033 232.903 392.874 232.903 394.022V400.438H232.033V394.057C232.033 393.173 231.831 392.522 231.427 392.106C231.022 391.69 230.489 391.482 229.827 391.482C228.919 391.482 228.207 391.749 227.691 392.282C227.182 392.809 226.927 393.641 226.927 394.778V400.438H226.048V394.057C226.048 393.466 225.954 392.982 225.767 392.607C225.585 392.226 225.33 391.945 225.002 391.763C224.674 391.576 224.287 391.482 223.842 391.482C223.25 391.482 222.737 391.605 222.304 391.851C221.87 392.092 221.536 392.467 221.302 392.976C221.067 393.48 220.95 394.122 220.95 394.901V400.438H220.062V390.885H220.783L220.915 392.449H220.968C221.126 392.138 221.337 391.851 221.601 391.588C221.864 391.324 222.189 391.11 222.576 390.946C222.969 390.782 223.429 390.7 223.956 390.7C224.642 390.7 225.222 390.855 225.696 391.166C226.177 391.47 226.511 391.925 226.698 392.528H226.76C227.018 391.954 227.416 391.506 227.955 391.183C228.5 390.861 229.156 390.7 229.924 390.7ZM243.898 395.648C243.898 396.386 243.808 397.06 243.626 397.67C243.444 398.273 243.175 398.795 242.817 399.234C242.46 399.674 242.015 400.013 241.481 400.254C240.954 400.494 240.339 400.614 239.636 400.614C238.968 400.614 238.373 400.497 237.852 400.262C237.33 400.022 236.888 399.682 236.524 399.243C236.167 398.803 235.895 398.282 235.707 397.678C235.52 397.069 235.426 396.392 235.426 395.648C235.426 394.623 235.596 393.741 235.936 393.003C236.281 392.259 236.773 391.69 237.412 391.298C238.057 390.899 238.827 390.7 239.724 390.7C240.649 390.7 241.42 390.911 242.035 391.333C242.656 391.749 243.122 392.329 243.433 393.073C243.743 393.817 243.898 394.676 243.898 395.648ZM236.34 395.648C236.34 396.486 236.46 397.219 236.7 397.845C236.94 398.472 237.304 398.962 237.79 399.313C238.282 399.665 238.903 399.841 239.653 399.841C240.421 399.841 241.051 399.665 241.543 399.313C242.035 398.962 242.398 398.469 242.633 397.837C242.867 397.204 242.984 396.474 242.984 395.648C242.984 394.845 242.873 394.131 242.65 393.504C242.428 392.877 242.076 392.385 241.596 392.027C241.115 391.664 240.488 391.482 239.715 391.482C238.607 391.482 237.767 391.851 237.192 392.59C236.624 393.328 236.34 394.347 236.34 395.648ZM249.998 400.614C248.691 400.614 247.695 400.204 247.01 399.384C246.33 398.557 245.99 397.356 245.99 395.78C245.99 394.128 246.351 392.868 247.071 392.001C247.792 391.134 248.797 390.7 250.086 390.7C250.637 390.7 251.114 390.785 251.519 390.955C251.929 391.125 252.271 391.356 252.547 391.649C252.828 391.936 253.045 392.264 253.197 392.634H253.268C253.244 392.323 253.227 391.989 253.215 391.632C253.203 391.274 253.197 390.946 253.197 390.647V386.762H254.085V400.438H253.364L253.25 398.689H253.197C253.039 399.041 252.819 399.363 252.538 399.656C252.263 399.949 251.917 400.183 251.501 400.359C251.085 400.529 250.584 400.614 249.998 400.614ZM250.095 399.841C251.22 399.841 252.02 399.492 252.494 398.795C252.969 398.092 253.206 397.09 253.206 395.789V395.648C253.206 394.301 252.969 393.269 252.494 392.554C252.02 391.834 251.246 391.473 250.174 391.473C249.113 391.473 248.302 391.843 247.739 392.581C247.183 393.319 246.904 394.391 246.904 395.798C246.904 397.122 247.165 398.127 247.687 398.812C248.214 399.498 249.017 399.841 250.095 399.841ZM265.186 395.648C265.186 396.386 265.095 397.06 264.913 397.67C264.731 398.273 264.462 398.795 264.104 399.234C263.747 399.674 263.302 400.013 262.769 400.254C262.241 400.494 261.626 400.614 260.923 400.614C260.255 400.614 259.66 400.497 259.139 400.262C258.617 400.022 258.175 399.682 257.812 399.243C257.454 398.803 257.182 398.282 256.994 397.678C256.807 397.069 256.713 396.392 256.713 395.648C256.713 394.623 256.883 393.741 257.223 393.003C257.568 392.259 258.061 391.69 258.699 391.298C259.344 390.899 260.114 390.7 261.011 390.7C261.937 390.7 262.707 390.911 263.322 391.333C263.943 391.749 264.409 392.329 264.72 393.073C265.03 393.817 265.186 394.676 265.186 395.648ZM257.627 395.648C257.627 396.486 257.747 397.219 257.987 397.845C258.228 398.472 258.591 398.962 259.077 399.313C259.569 399.665 260.19 399.841 260.94 399.841C261.708 399.841 262.338 399.665 262.83 399.313C263.322 398.962 263.686 398.469 263.92 397.837C264.154 397.204 264.271 396.474 264.271 395.648C264.271 394.845 264.16 394.131 263.938 393.504C263.715 392.877 263.363 392.385 262.883 392.027C262.402 391.664 261.775 391.482 261.002 391.482C259.895 391.482 259.054 391.851 258.479 392.59C257.911 393.328 257.627 394.347 257.627 395.648ZM271.628 390.718C271.88 390.718 272.117 390.732 272.34 390.761C272.562 390.791 272.771 390.832 272.964 390.885L272.823 391.702C272.63 391.649 272.434 391.611 272.234 391.588C272.035 391.558 271.821 391.544 271.593 391.544C271.142 391.544 270.737 391.629 270.38 391.799C270.028 391.969 269.729 392.212 269.483 392.528C269.237 392.844 269.05 393.225 268.921 393.671C268.792 394.116 268.728 394.614 268.728 395.165V400.438H267.831V390.885H268.596L268.684 392.686H268.736C268.883 392.317 269.088 391.986 269.352 391.693C269.621 391.394 269.946 391.157 270.327 390.981C270.708 390.805 271.142 390.718 271.628 390.718ZM282.764 395.648C282.764 396.386 282.673 397.06 282.491 397.67C282.31 398.273 282.04 398.795 281.683 399.234C281.325 399.674 280.88 400.013 280.347 400.254C279.819 400.494 279.204 400.614 278.501 400.614C277.833 400.614 277.238 400.497 276.717 400.262C276.195 400.022 275.753 399.682 275.39 399.243C275.032 398.803 274.76 398.282 274.572 397.678C274.385 397.069 274.291 396.392 274.291 395.648C274.291 394.623 274.461 393.741 274.801 393.003C275.146 392.259 275.639 391.69 276.277 391.298C276.922 390.899 277.692 390.7 278.589 390.7C279.515 390.7 280.285 390.911 280.9 391.333C281.521 391.749 281.987 392.329 282.298 393.073C282.608 393.817 282.764 394.676 282.764 395.648ZM275.205 395.648C275.205 396.486 275.325 397.219 275.565 397.845C275.806 398.472 276.169 398.962 276.655 399.313C277.147 399.665 277.769 399.841 278.519 399.841C279.286 399.841 279.916 399.665 280.408 399.313C280.9 398.962 281.264 398.469 281.498 397.837C281.732 397.204 281.85 396.474 281.85 395.648C281.85 394.845 281.738 394.131 281.516 393.504C281.293 392.877 280.941 392.385 280.461 392.027C279.98 391.664 279.354 391.482 278.58 391.482C277.473 391.482 276.632 391.851 276.058 392.59C275.489 393.328 275.205 394.347 275.205 395.648Z" fill="#FEC89A"/>
<path d="M172.592 344.899L163.873 379.165H155.6L150.959 361.165C150.865 360.821 150.74 360.298 150.584 359.595C150.428 358.892 150.264 358.126 150.092 357.298C149.92 356.454 149.764 355.665 149.623 354.931C149.498 354.181 149.412 353.587 149.365 353.149C149.318 353.587 149.225 354.173 149.084 354.907C148.959 355.642 148.811 356.423 148.639 357.251C148.482 358.079 148.326 358.853 148.17 359.571C148.014 360.29 147.889 360.837 147.795 361.212L143.178 379.165H134.928L126.186 344.899H133.334L137.717 363.603C137.842 364.165 137.982 364.837 138.139 365.618C138.311 366.399 138.475 367.22 138.631 368.079C138.803 368.923 138.951 369.743 139.076 370.54C139.217 371.321 139.318 372.001 139.381 372.579C139.459 371.985 139.561 371.298 139.686 370.517C139.811 369.72 139.943 368.915 140.084 368.103C140.24 367.274 140.396 366.509 140.553 365.806C140.709 365.103 140.85 364.532 140.975 364.095L145.967 344.899H152.834L157.826 364.095C157.936 364.517 158.061 365.087 158.201 365.806C158.357 366.509 158.514 367.274 158.67 368.103C158.826 368.931 158.967 369.743 159.092 370.54C159.232 371.321 159.334 372.001 159.396 372.579C159.506 371.798 159.654 370.853 159.842 369.743C160.045 368.618 160.256 367.501 160.475 366.392C160.709 365.282 160.912 364.353 161.084 363.603L165.443 344.899H172.592ZM187.076 352.423C190.592 352.423 193.287 353.188 195.162 354.72C197.037 356.251 197.975 358.579 197.975 361.704V379.165H192.982L191.6 375.603H191.412C190.662 376.54 189.896 377.306 189.115 377.899C188.334 378.493 187.436 378.931 186.42 379.212C185.404 379.493 184.17 379.634 182.717 379.634C181.17 379.634 179.779 379.337 178.545 378.743C177.326 378.149 176.365 377.243 175.662 376.024C174.959 374.79 174.607 373.228 174.607 371.337C174.607 368.556 175.584 366.509 177.537 365.196C179.49 363.868 182.42 363.134 186.326 362.993L190.873 362.853V361.704C190.873 360.329 190.514 359.321 189.795 358.681C189.076 358.04 188.076 357.72 186.795 357.72C185.529 357.72 184.287 357.899 183.068 358.259C181.85 358.618 180.631 359.071 179.412 359.618L177.045 354.79C178.436 354.056 179.99 353.478 181.709 353.056C183.443 352.634 185.232 352.423 187.076 352.423ZM190.873 367.024L188.107 367.118C185.795 367.181 184.186 367.595 183.279 368.36C182.389 369.126 181.943 370.134 181.943 371.384C181.943 372.478 182.264 373.259 182.904 373.728C183.545 374.181 184.381 374.407 185.412 374.407C186.943 374.407 188.232 373.954 189.279 373.048C190.342 372.142 190.873 370.853 190.873 369.181V367.024ZM211.592 379.165L201.607 352.962H209.084L214.146 367.892C214.428 368.767 214.646 369.688 214.803 370.657C214.975 371.626 215.092 372.493 215.154 373.259H215.342C215.389 372.431 215.498 371.548 215.67 370.61C215.857 369.673 216.1 368.767 216.396 367.892L221.436 352.962H228.912L218.928 379.165H211.592ZM243.49 352.47C245.912 352.47 247.998 352.938 249.748 353.876C251.498 354.798 252.85 356.142 253.803 357.907C254.756 359.673 255.232 361.829 255.232 364.376V367.845H238.334C238.412 369.86 239.014 371.446 240.139 372.603C241.279 373.743 242.857 374.313 244.873 374.313C246.545 374.313 248.076 374.142 249.467 373.798C250.857 373.454 252.287 372.938 253.756 372.251V377.782C252.459 378.423 251.1 378.892 249.678 379.188C248.271 379.485 246.561 379.634 244.545 379.634C241.92 379.634 239.592 379.149 237.561 378.181C235.545 377.212 233.959 375.735 232.803 373.751C231.662 371.767 231.092 369.267 231.092 366.251C231.092 363.188 231.607 360.642 232.639 358.61C233.686 356.563 235.139 355.032 236.998 354.017C238.857 352.985 241.021 352.47 243.49 352.47ZM243.537 357.556C242.146 357.556 240.99 358.001 240.068 358.892C239.162 359.782 238.639 361.181 238.498 363.087H248.529C248.514 362.024 248.318 361.079 247.943 360.251C247.584 359.423 247.037 358.767 246.303 358.282C245.584 357.798 244.662 357.556 243.537 357.556ZM279.326 371.384C279.326 373.165 278.904 374.673 278.061 375.907C277.232 377.126 275.99 378.056 274.334 378.696C272.678 379.321 270.615 379.634 268.146 379.634C266.318 379.634 264.748 379.517 263.436 379.282C262.139 379.048 260.826 378.657 259.498 378.11V372.204C260.92 372.845 262.443 373.376 264.068 373.798C265.709 374.204 267.146 374.407 268.381 374.407C269.771 374.407 270.764 374.204 271.357 373.798C271.967 373.376 272.271 372.829 272.271 372.157C272.271 371.72 272.146 371.329 271.896 370.985C271.662 370.626 271.146 370.228 270.35 369.79C269.553 369.337 268.303 368.751 266.6 368.032C264.959 367.345 263.607 366.649 262.545 365.946C261.498 365.243 260.717 364.415 260.201 363.462C259.701 362.493 259.451 361.267 259.451 359.782C259.451 357.36 260.389 355.54 262.264 354.321C264.154 353.087 266.678 352.47 269.834 352.47C271.459 352.47 273.006 352.634 274.475 352.962C275.959 353.29 277.482 353.813 279.045 354.532L276.889 359.688C275.592 359.126 274.365 358.665 273.209 358.306C272.068 357.946 270.904 357.767 269.717 357.767C268.67 357.767 267.881 357.907 267.35 358.188C266.818 358.47 266.553 358.899 266.553 359.478C266.553 359.899 266.686 360.274 266.951 360.603C267.232 360.931 267.764 361.298 268.545 361.704C269.342 362.095 270.506 362.603 272.037 363.228C273.521 363.837 274.811 364.478 275.904 365.149C276.998 365.806 277.842 366.626 278.436 367.61C279.029 368.579 279.326 369.837 279.326 371.384Z" fill="#FFB5A7"/>
<defs>
<linearGradient id="paint0_linear_30_53" x1="188" y1="406" x2="187.5" y2="812" gradientUnits="userSpaceOnUse">
<stop stop-color="#FFF8F6"/>
<stop offset="1" stop-color="#FEC89A" stop-opacity="0.2"/>
</linearGradient>
<linearGradient id="paint1_linear_30_53" x1="188.003" y1="101" x2="188.003" y2="292.985" gradientUnits="userSpaceOnUse">
<stop stop-color="#FFB5A7"/>
<stop offset="1" stop-color="#FEC89A"/>
</linearGradient>
<linearGradient id="paint2_linear_30_53" x1="187.854" y1="184.048" x2="187.854" y2="281.466" gradientUnits="userSpaceOnUse">
<stop stop-color="#FFB5A7"/>
<stop offset="1" stop-color="#FEC89A"/>
</linearGradient>
</defs>
</svg>
